                     <svg width="26" height="16" viewBox="0 0 26 16" fill="none"
                                xmlns="http://www.w3.org/2000/svg">
                                <g clip-path="url(#clip0_1164_29747)">
                                    <path d="M9.44922 1.71198H16.4518V14.2944H9.44922V1.71198Z" fill="#FF5F00"></path>
                                    <path
                                        d="M9.89256 8.003C9.89256 5.44654 11.093 3.179 12.938 1.71176C11.5821 0.644719 9.87038 6.10352e-05 8.00304 6.10352e-05C3.57904 6.10352e-05 0 3.5791 0 8.003C0 12.4268 3.57904 16.0059 8.00294 16.0059C9.87028 16.0059 11.582 15.3613 12.938 14.2941C11.093 12.8492 9.89256 10.5595 9.89256 8.003V8.003Z"
                                        fill="#EB001B"></path>
                                    <path
                                        d="M25.899 8.003C25.899 12.4268 22.3199 16.0059 17.896 16.0059C16.0287 16.0059 14.317 15.3613 12.9609 14.2941C14.8283 12.827 16.0065 10.5595 16.0065 8.003C16.0065 5.44654 14.806 3.179 12.9609 1.71176C14.3169 0.644719 16.0287 6.10352e-05 17.896 6.10352e-05C22.3199 6.10352e-05 25.8991 3.60138 25.8991 8.003H25.899Z"
                                        fill="#F79E1B"></path>
                                </g>
                                <defs>
                                    <clipPath id="clip0_1164_29747">
                                        <rect width="25.9241" height="16" fill="white"></rect>
                                    </clipPath>
                                </defs>
                            </svg>