<svg width="107" height="13" viewBox="0 0 107 13" fill="none" xmlns="http://www.w3.org/2000/svg">
<g clip-path="url(#clip0_1164_29837)">
<path d="M15.3862 4.99147L0.716169 12.1622C0.38475 12.3249 0 12.0865 0 11.7232V6.40291C0 6.08884 0.179042 5.80125 0.464748 5.66124L9.40543 1.2907C12.1634 -0.0564073 15.3862 1.93777 15.3862 4.99147Z" fill="#122344"/>
<path d="M24.351 7.21992L15.4104 11.5905C12.6523 12.9376 9.42578 10.9434 9.42578 7.88969L24.0996 0.715199C24.431 0.552486 24.8158 0.790879 24.8158 1.15793V6.47447C24.8158 6.79233 24.6329 7.07991 24.351 7.21992Z" fill="url(#paint0_linear_1164_29837)"/>
<path d="M34.1914 0.586548H38.7475C41.494 0.586548 43.3035 2.03583 43.3035 4.41976V4.45381C43.3035 7.061 41.1131 8.40811 38.5227 8.40811H35.5666V12.6727H34.1952V0.586548H34.1914ZM38.5722 7.16317C40.5874 7.16317 41.9093 6.09229 41.9093 4.503V4.46895C41.9093 2.73965 40.6064 1.84284 38.6408 1.84284H35.5628V7.15939H38.5722V7.16317Z" fill="#122344"/>
<path d="M48.6664 11.723C49.9006 11.723 50.7692 11.2235 51.5006 10.463L52.3348 11.2046C51.432 12.2074 50.3349 12.8809 48.6321 12.8809C46.1636 12.8809 44.1484 11.0003 44.1484 8.21904C44.1484 5.63077 45.9731 3.55713 48.4607 3.55713C51.1196 3.55713 52.6472 5.66483 52.6472 8.29093C52.6472 8.41202 52.6472 8.54825 52.632 8.75637H45.5046C45.6951 10.637 47.0817 11.723 48.6664 11.723ZM51.2911 7.68549C51.1349 6.06215 50.194 4.68098 48.4226 4.68098C46.876 4.68098 45.6951 5.95998 45.5008 7.68549H51.2911Z" fill="#122344"/>
<path d="M53.8047 11.5336L54.4828 10.5838C55.458 11.3103 56.536 11.7228 57.595 11.7228C58.6731 11.7228 59.454 11.1703 59.454 10.3076V10.2735C59.454 9.3767 58.395 9.02857 57.2103 8.70315C55.8046 8.30583 54.239 7.82147 54.239 6.18299V6.14894C54.239 4.61263 55.5265 3.59473 57.2979 3.59473C58.395 3.59473 59.6102 3.97691 60.5321 4.57857L59.9226 5.58133C59.0883 5.044 58.1322 4.71858 57.2636 4.71858C56.2046 4.71858 55.5265 5.27105 55.5265 6.01271V6.04677C55.5265 6.89439 56.6389 7.21981 57.8388 7.58308C59.2293 7.99554 60.7226 8.53287 60.7226 10.1373V10.1713C60.7226 11.8628 59.3131 12.8466 57.5227 12.8466C56.2389 12.8466 54.8142 12.3434 53.8047 11.5336Z" fill="#122344"/>
<path d="M62.0898 10.0843V10.0503C62.0898 8.13555 63.6555 7.13278 65.9297 7.13278C67.0764 7.13278 67.8763 7.28793 68.6763 7.51118V7.23495C68.6763 5.64566 67.7011 4.81696 66.0173 4.81696C64.9583 4.81696 64.1241 5.07428 63.2898 5.45646L62.8898 4.37045C63.8803 3.92015 64.8364 3.60986 66.1583 3.60986C67.4268 3.60986 68.4173 3.95421 69.0611 4.59371C69.6858 5.21429 70.002 6.08083 70.002 7.21981V12.6764H68.6801V11.3482C68.0554 12.1428 67.0268 12.8656 65.4459 12.8656C63.7622 12.8656 62.0898 11.9158 62.0898 10.0843ZM68.6992 9.39184V8.56314C68.0401 8.37394 67.1716 8.18474 66.0745 8.18474C64.406 8.18474 63.4498 8.91127 63.4498 9.97836V10.0124C63.4498 11.1325 64.4936 11.7909 65.7088 11.7909C67.3583 11.7909 68.6992 10.8071 68.6992 9.39184Z" fill="#122344"/>
<path d="M72.9022 4.92301H71.668V3.7651H72.9022V2.98559C72.9022 1.96769 73.1803 1.18818 73.6831 0.688691C74.1365 0.238393 74.7955 0 75.6107 0C76.2354 0 76.6545 0.0681123 77.0887 0.223257V1.38117C76.6011 1.24116 76.2354 1.15791 75.7859 1.15791C74.7422 1.15791 74.2203 1.77849 74.2203 3.05749V3.78402H77.0697V4.92301H74.2355V12.6765H72.8984V4.92301H72.9022ZM78.9135 0.0681123H80.2353V12.6727H78.9135V0.0681123Z" fill="#122344"/>
<path d="M82.3672 8.25309V8.21904C82.3672 5.69888 84.3481 3.55713 87.0604 3.55713C89.7536 3.55713 91.7383 5.66483 91.7383 8.18498V8.21904C91.7383 10.7392 89.7384 12.8809 87.0261 12.8809C84.329 12.8809 82.3672 10.7732 82.3672 8.25309ZM90.3631 8.25309V8.21904C90.3631 6.30433 88.9194 4.73017 87.0261 4.73017C85.0795 4.73017 83.7424 6.30054 83.7424 8.18498V8.21904C83.7424 10.1338 85.1671 11.689 87.0642 11.689C89.007 11.689 90.3631 10.1338 90.3631 8.25309Z" fill="#122344"/>
<path d="M92.5117 3.74597H93.9364L96.3021 10.9129L98.7172 3.71191H99.8296L102.264 10.9129L104.629 3.74597H106.02L102.858 12.7406H101.692L99.2772 5.69474L96.843 12.7406H95.6621L92.5117 3.74597Z" fill="#122344"/>
</g>
<defs>
<linearGradient id="paint0_linear_1164_29837" x1="9.42692" y1="6.3418" x2="24.8141" y2="6.3418" gradientUnits="userSpaceOnUse">
<stop stop-color="#FFFD68"/>
<stop offset="1" stop-color="#EE6D39"/>
</linearGradient>
<clipPath id="clip0_1164_29837">
<rect width="106.023" height="12.8808" fill="white"/>
</clipPath>
</defs>
</svg>
