<svg width="46" height="32" viewBox="0 0 46 32" fill="none" xmlns="http://www.w3.org/2000/svg">
<rect x="0.5" y="0.5" width="45" height="31" rx="5.5" fill="white"/>
<path d="M27 12V8.5006C27 7.66887 27 7.253 26.8248 6.99742C26.6717 6.77413 26.4346 6.62245 26.1678 6.57703C25.8623 6.52505 25.4847 6.69932 24.7295 7.04787L15.859 11.1419C15.1855 11.4528 14.8488 11.6082 14.6021 11.8493C14.3841 12.0624 14.2176 12.3225 14.1155 12.6098C14 12.9347 14 13.3056 14 14.0474V18.9999M27.5 18.4999H27.51M14 15.2L14 21.7999C14 22.9201 14 23.4801 14.218 23.9079C14.4097 24.2843 14.7157 24.5902 15.092 24.782C15.5198 24.9999 16.0799 24.9999 17.2 24.9999H28.8C29.9201 24.9999 30.4802 25 30.908 24.782C31.2843 24.5902 31.5903 24.2843 31.782 23.9079C32 23.4801 32 22.9201 32 21.7999V15.2C32 14.0798 32 13.5198 31.782 13.092C31.5903 12.7156 31.2843 12.4097 30.908 12.2179C30.4802 12 29.9201 12 28.8 12L17.2 11.9999C16.0799 11.9999 15.5198 12 15.092 12.2179C14.7157 12.4097 14.4097 12.7156 14.218 13.092C14 13.5198 14 14.0798 14 15.2ZM28 18.4999C28 18.7761 27.7761 18.9999 27.5 18.9999C27.2239 18.9999 27 18.7761 27 18.4999C27 18.2238 27.2239 17.9999 27.5 17.9999C27.7761 17.9999 28 18.2238 28 18.4999Z" stroke="black" stroke-width="2" stroke-linecap="round" stroke-linejoin="round"/>
<rect x="0.5" y="0.5" width="45" height="31" rx="5.5" stroke="#F2F4F7"/>
</svg>
